<?xml version="1.0" standalone="no"?><!DOCTYPE svg PUBLIC "-//W3C//DTD SVG 1.1//EN" "http://www.w3.org/Graphics/SVG/1.1/DTD/svg11.dtd"><svg t="1641449277057" class="icon" viewBox="0 0 1024 1024" version="1.1" xmlns="http://www.w3.org/2000/svg" p-id="20490" xmlns:xlink="http://www.w3.org/1999/xlink" width="32" height="32"><defs><style type="text/css"></style></defs><path d="M23.272727 141.963636h977.454546v651.636364H23.272727z" fill="#C14A27" p-id="20491"></path><path d="M188.509091 221.090909l20.945454 60.509091h65.163637l-53.527273 39.563636 20.945455 62.836364-53.527273-39.563636-53.527273 39.563636 20.945455-62.836364-53.527273-39.563636h65.163636zM411.927273 344.436364l6.981818 18.618181h18.618182l-16.290909 11.636364 6.981818 18.618182-16.290909-11.636364-16.290909 11.636364 6.981818-18.618182-16.290909-11.636364h20.945454zM432.872727 256l-9.309091 16.290909 13.963637 13.963636-18.618182-2.327272-9.309091 18.618182-2.327273-20.945455-20.945454-2.327273 18.618182-9.309091-4.654546-18.618181 13.963636 13.963636zM325.818182 197.818182l18.618182 6.981818 13.963636-16.290909-2.327273 20.945454 18.618182 6.981819-18.618182 4.654545-2.327272 18.618182-9.309091-16.290909-20.945455 4.654545 13.963636-13.963636zM325.818182 421.236364l18.618182 6.981818 13.963636-16.290909-2.327273 20.945454 18.618182 6.981818-18.618182 4.654546-2.327272 20.945454-9.309091-18.618181-20.945455 6.981818 13.963636-16.290909z" fill="#E6CC2D" p-id="20492"></path></svg>